<?xml version="1.0" encoding="UTF-8"?><svg xmlns="http://www.w3.org/2000/svg" viewBox="0 0 233.33 310.42"><defs><style>.d{fill:#fbff2b;}</style></defs><g id="a"/><g id="b"><g id="c"><g><path class="d" d="M127.74,169.46c-1.85-1.27-3.46-2.87-4.72-4.72l4.72,4.72Z"/><path class="d" d="M226.01,303.09c-9.76,9.77-25.59,9.77-35.35,0l-109.14-109.14,21.76-21.76c2.11-2.11,3.76-4.5,4.95-7.05,1.56-3.31,2.34-6.88,2.37-10.46v-.18c0-.76-.03-1.52-.1-2.28l12.52,12.52c1.26,1.85,2.87,3.45,4.72,4.72l2.11,2.11,96.16,96.17c9.76,9.76,9.76,25.59,0,35.35Z"/><path class="d" d="M50,25.21v58.51L0,33.72v-8.51C0,11.4,11.2,.21,25,.21c6.91,0,13.15,2.8,17.68,7.32,4.52,4.53,7.32,10.77,7.32,17.68Z"/><polygon class="d" points="50 154.43 50 154.75 0 204.76 0 104.43 50 154.43"/><path class="d" d="M50,225.47v59.74c0,13.8-11.19,25-25,25S0,299.01,0,285.21v-9.74l50-50Z"/><path class="d" d="M232.11,25c0,6.4-2.44,12.8-7.32,17.68l-94.95,94.94-2.09,2.1-4.72,4.71-10.16,10.16-2.37,2.37c.07-.76,.1-1.52,.1-2.28v-.18c-.03-3.58-.81-7.15-2.37-10.45-1.19-2.55-2.84-4.94-4.95-7.05l-21.76-21.76L189.43,7.32c9.76-9.76,25.59-9.76,35.36,0,4.88,4.88,7.32,11.28,7.32,17.68Z"/><path class="d" d="M129.85,171.57c-2.04,.77-4.26,1.19-6.57,1.19-6.21,0-11.71-3.01-15.05-7.62,1.56-3.31,2.34-6.88,2.37-10.46v-.18c-.03-3.58-.81-7.15-2.37-10.45,3.35-4.62,8.84-7.62,15.05-7.62,2.31,0,4.52,.42,6.56,1.19l-2.09,2.1c-1.85,1.27-3.45,2.87-4.72,4.71-2,2.9-3.17,6.4-3.17,10.17s1.16,7.25,3.16,10.14c1.26,1.85,2.87,3.45,4.72,4.72l2.11,2.11Z"/></g></g></g></svg>